<svg xmlns="http://www.w3.org/2000/svg" width="435" height="80" viewBox="0 0 435 80"><g><g><g opacity=".1"><path fill="#ebeefc" d="M39 0h357v80H39z"/></g><g><g><g><path fill="#188fff" d="M0 0h39v41H0z"/></g><g><path fill="#0083ff" d="M0 0h20c10.493 0 19 8.507 19 19v22H0z"/></g></g><g><g><path fill="#188fff" d="M0 41h39v39H0z"/></g><g><path fill="#0083ff" d="M0 41h39v20c0 10.493-8.507 19-19 19H0z"/></g></g></g><g><g><g><path fill="#188fff" d="M435 80h-39V39h39z"/></g><g><path fill="#0083ff" d="M435 80h-20c-10.493 0-19-8.507-19-19V39h39z"/></g></g><g><g><path fill="#188fff" d="M435 39h-39V0h39z"/></g><g><path fill="#0083ff" d="M435 39h-39V19c0-10.493 8.507-19 19-19h20z"/></g></g></g></g></g></svg>