<svg xmlns="http://www.w3.org/2000/svg" width="80" height="72" viewBox="0 0 80 72"><defs><clipPath id="txnha"><path d="M-1 75V-2h82v77z"/></clipPath><clipPath id="txnhb"><path d="M15.928 65.471L64.37 37.128c7.956-7.78 11.41-15.39 10.361-22.834-1.049-7.443-6.026-9.645-14.932-6.605-3.201-7.042-8.906-9.247-17.114-6.615C34.478 3.707 26.993 11.3 20.231 23.852 7.494 30.384.77 39.826.063 52.177-.646 64.53 4.643 68.96 15.928 65.471z"/></clipPath><clipPath id="txnhc"><path d="M0 72h80V0H0z"/></clipPath><clipPath id="txnhd"><path d="M20.456 70.679l48.443-28.343c7.956-7.78 11.41-15.39 10.361-22.834-1.049-7.443-6.026-9.645-14.932-6.605-3.201-7.042-8.906-9.247-17.114-6.614C39.006 8.915 31.521 16.508 24.76 29.06 12.022 35.592 5.299 45.034 4.59 57.386c-.71 12.351 4.58 16.782 15.865 13.293z"/></clipPath><clipPath id="txnhe"><path d="M0 72h80V0H0z"/></clipPath></defs><g><g opacity=".7"><g opacity=".7"><g opacity=".7"/><g clip-path="url(#txnha)" opacity=".7"><g opacity=".7"/><g clip-path="url(#txnhb)" opacity=".7"><g opacity=".7"/><g clip-path="url(#txnhc)" opacity=".7"><path fill="#fff" fill-opacity=".69" d="M-5-5h84.915v76.624H-5z"/></g></g></g><g clip-path="url(#txnha)" opacity=".7"><g opacity=".7"/><g clip-path="url(#txnhd)" opacity=".7"><g opacity=".7"/><g clip-path="url(#txnhe)" opacity=".7"><path fill="#fff" d="M-.472.208h84.915v76.624H-.472z"/></g></g></g></g></g></g></svg>